<svg width="25" height="25" viewBox="0 0 25 25" fill="none" xmlns="http://www.w3.org/2000/svg">
<path d="M12.3336 21.0731C10.6722 21.0731 9.04818 20.5804 7.66681 19.6574C6.28543 18.7344 5.20878 17.4225 4.57301 15.8876C3.93723 14.3527 3.77089 12.6638 4.095 11.0343C4.41912 9.4049 5.21914 7.90817 6.3939 6.73341C7.56866 5.55865 9.0654 4.75862 10.6948 4.43451C12.3243 4.11039 14.0132 4.27674 15.5481 4.91252C17.083 5.54829 18.3949 6.62494 19.3179 8.00631C20.2409 9.38769 20.7336 11.0117 20.7336 12.6731C20.7336 14.9009 19.8486 17.0375 18.2733 18.6128C16.698 20.1881 14.5614 21.0731 12.3336 21.0731ZM12.3336 5.4731C10.9096 5.4731 9.51752 5.89538 8.33349 6.68652C7.14946 7.47767 6.22661 8.60215 5.68166 9.91778C5.13671 11.2334 4.99413 12.6811 5.27194 14.0778C5.54976 15.4744 6.23549 16.7573 7.24243 17.7643C8.24936 18.7712 9.53228 19.4569 10.9289 19.7347C12.3256 20.0126 13.7733 19.87 15.0889 19.325C16.4045 18.7801 17.529 17.8572 18.3202 16.6732C19.1113 15.4892 19.5336 14.0971 19.5336 12.6731C19.5336 10.7635 18.775 8.9322 17.4248 7.58193C16.0745 6.23167 14.2432 5.4731 12.3336 5.4731Z" fill="white"/>
<path d="M14.0082 16.2731L11.1333 13.1427V7.87311H12.1619V12.6779L14.7333 15.4835L14.0082 16.2731Z" fill="white"/>
</svg>
