<svg width="25" height="24" viewBox="0 0 25 24" fill="none" xmlns="http://www.w3.org/2000/svg">
<path d="M12.3336 20.4C10.6722 20.4 9.04818 19.9073 7.66681 18.9843C6.28543 18.0613 5.20878 16.7494 4.57301 15.2145C3.93723 13.6796 3.77089 11.9907 4.095 10.3612C4.41912 8.73181 5.21914 7.23507 6.3939 6.06031C7.56866 4.88555 9.0654 4.08553 10.6948 3.76141C12.3243 3.4373 14.0132 3.60365 15.5481 4.23942C17.083 4.8752 18.3949 5.95185 19.3179 7.33322C20.2409 8.71459 20.7336 10.3386 20.7336 12C20.7336 14.2278 19.8486 16.3644 18.2733 17.9397C16.698 19.515 14.5614 20.4 12.3336 20.4ZM12.3336 4.80001C10.9096 4.80001 9.51752 5.22228 8.33349 6.01343C7.14946 6.80457 6.22661 7.92906 5.68166 9.24469C5.13671 10.5603 4.99413 12.008 5.27194 13.4047C5.54976 14.8013 6.23549 16.0842 7.24243 17.0912C8.24936 18.0981 9.53228 18.7838 10.9289 19.0617C12.3256 19.3395 13.7733 19.1969 15.0889 18.6519C16.4045 18.107 17.529 17.1841 18.3202 16.0001C19.1113 14.8161 19.5336 13.424 19.5336 12C19.5336 10.0904 18.775 8.2591 17.4248 6.90884C16.0745 5.55858 14.2432 4.80001 12.3336 4.80001Z" fill="white"/>
<path d="M14.0082 15.6L11.1333 12.4696V7.20001H12.1619V12.0048L14.7333 14.8104L14.0082 15.6Z" fill="white"/>
</svg>
