<svg width="61" height="71" viewBox="0 0 61 71" fill="none" xmlns="http://www.w3.org/2000/svg">
<path d="M5.10178 13.7207V40.1114C5.10178 54.4783 16.4895 66.1223 30.535 66.1223C44.5805 66.1223 55.9682 54.4783 55.9682 40.1114V13.735L30.3822 5.1333L5.10178 13.7207ZM30.3751 0L60.7365 10.2027V40.1114C60.7365 57.1692 47.2133 71 30.535 71C13.8567 71 0.333496 57.1692 0.333496 40.1114V10.2027L30.3751 0ZM46.0763 23.0217C45.8444 22.8089 45.5719 22.6449 45.2752 22.5395C44.9785 22.4341 44.6635 22.3896 44.3492 22.4085C44.0348 22.4273 43.7275 22.5093 43.4455 22.6494C43.1635 22.7896 42.9127 22.985 42.708 23.2241L27.3727 40.864L17.4666 29.9123C17.2572 29.6779 17.0027 29.4879 16.7183 29.3538C16.4339 29.2196 16.1253 29.144 15.8111 29.1314C15.4968 29.1188 15.1832 29.1695 14.889 29.2805C14.5947 29.3915 14.3258 29.5605 14.0983 29.7774C13.6324 30.2223 13.3582 30.8309 13.3336 31.4743C13.3091 32.1177 13.5362 32.7454 13.9668 33.2244L25.6566 46.1464C25.8792 46.3965 26.1529 46.5961 26.4592 46.7316C26.7655 46.8671 27.0973 46.9355 27.4323 46.9321C27.7673 46.9288 28.0977 46.8537 28.4012 46.7121C28.7047 46.5704 28.9743 46.3655 29.1919 46.111L46.2717 26.4652C46.6933 25.9784 46.9086 25.3467 46.8721 24.704C46.8356 24.0612 46.5502 23.4579 46.0763 23.0217Z" fill="#1D1C31"/>
</svg>
