<svg width="21" height="20" viewBox="0 0 21 20" fill="none" xmlns="http://www.w3.org/2000/svg">
<path fill-rule="evenodd" clip-rule="evenodd" d="M11.2537 3.48083L12.7766 6.52312C12.9258 6.82179 13.2139 7.02888 13.548 7.07681L16.9546 7.56717C17.7963 7.68869 18.1312 8.70878 17.5221 9.29327L15.0586 11.6604C14.8166 11.8931 14.7064 12.2277 14.7636 12.5564L15.345 15.8982C15.4882 16.7249 14.6083 17.3556 13.856 16.9645L10.8112 15.3856C10.5127 15.2307 10.1552 15.2307 9.85582 15.3856L6.811 16.9645C6.05869 17.3556 5.17882 16.7249 5.32287 15.8982L5.90337 12.5564C5.96064 12.2277 5.85044 11.8931 5.60834 11.6604L3.1449 9.29327C2.53576 8.70878 2.8707 7.68869 3.71238 7.56717L7.11904 7.07681C7.45311 7.02888 7.74206 6.82179 7.89131 6.52312L9.41328 3.48083C9.78987 2.7286 10.8771 2.7286 11.2537 3.48083Z" fill="#FFB800"/>
</svg>
