<svg width="25" height="24" viewBox="0 0 25 24" fill="none" xmlns="http://www.w3.org/2000/svg">
<path d="M15.6193 4C13.5155 4 11.81 5.79086 11.81 8C11.81 8.33382 11.8489 8.65809 11.9223 8.96808C9.89936 8.96808 6.85239 8.55908 4.30769 6.00961C3.96931 5.67059 3.34534 5.89726 3.36881 6.37567C3.74593 14.0627 7.03802 16.3049 8.73335 16.4444C7.6386 17.5257 6.04835 18.3791 4.44814 18.7622C4.02582 18.8633 3.92149 19.3256 4.33445 19.4599C5.47948 19.8323 7.11842 19.9758 8.0006 20C14.2414 20 19.3139 14.7471 19.4268 8.22229C20.2461 7.68945 20.771 6.5325 21.0659 5.71291C21.1377 5.5133 20.8105 5.28073 20.6147 5.36226C20.0026 5.61708 19.2256 5.67749 18.5637 5.46181C17.865 4.56927 16.8055 4 15.6193 4Z" fill="#B6B3EB"/>
</svg>
