<svg width="96" height="32" viewBox="0 0 96 32" fill="none" xmlns="http://www.w3.org/2000/svg">
<path fill-rule="evenodd" clip-rule="evenodd" d="M6.56965 31.1111H11.5389V17.5057H14.2078C21.2018 17.5057 30.4975 16.9606 30.4975 9.06994C30.4975 1.08801 21.7548 0.453014 14.7601 0.453014H0.771484V1.26923C5.74152 1.81358 6.56965 2.53991 6.56965 5.35084V31.1111ZM11.5389 5.35077C11.5389 2.62979 11.8147 2.26735 16.509 2.26735C21.6621 2.26735 24.7906 4.5347 24.7906 9.06994C24.7906 14.9659 19.4536 15.782 14.0239 15.782H11.5389V5.35077ZM35.8353 5.89519C35.8353 2.1767 35.0066 1.90499 30.0369 1.26923V0.453014H41.6321L59.7619 25.3971H59.8537V0.453014H62.8914V31.1111H58.4733L38.9632 4.44482H38.8714V31.1111H35.8353V5.89519ZM95.4697 30.2941C92.709 31.0205 90.0401 31.5641 84.6097 31.5641C73.7505 31.5641 67.8603 24.0366 67.8603 14.7839C67.8603 6.53019 71.3579 0 83.2294 0C91.9721 0 95.1016 3.62715 95.4697 6.71141H89.8557C89.5802 5.26027 88.5671 2.08545 82.8613 2.08545C76.6957 2.08545 73.4751 6.62152 73.4751 13.6053C73.4751 20.0456 75.1309 29.5693 87.831 29.5693C91.236 29.5693 94.8254 28.5712 95.4697 28.39V30.2941Z" fill="#B6B3EB"/>
</svg>
