<svg width="77" height="77" viewBox="0 0 77 77" fill="none" xmlns="http://www.w3.org/2000/svg">
<g filter="url(#filter0_d_3_12323)">
<rect x="3.67822" y="0.590454" width="69.8545" height="69.8545" rx="20.9563" fill="#C4C4C4" fill-opacity="0.1"/>
<g clip-path="url(#clip0_3_12323)">
<g clip-path="url(#clip1_3_12323)">
<path d="M49.2916 53.3555V49.2807C49.2916 47.1192 48.433 45.0463 46.9046 43.518C45.3763 41.9896 43.3034 41.131 41.1419 41.131H24.8426C22.6811 41.131 20.6082 41.9896 19.0799 43.518C17.5515 45.0463 16.6929 47.1192 16.6929 49.2807V53.3555" stroke="white" stroke-width="2.99376" stroke-linecap="round" stroke-linejoin="round"/>
<path d="M32.992 32.9813C37.4929 32.9813 41.1417 29.3325 41.1417 24.8316C41.1417 20.3306 37.4929 16.6819 32.992 16.6819C28.491 16.6819 24.8423 20.3306 24.8423 24.8316C24.8423 29.3325 28.491 32.9813 32.992 32.9813Z" stroke="white" stroke-width="2.99376" stroke-linecap="round" stroke-linejoin="round"/>
<path d="M61.5161 53.3554V49.2806C61.5147 47.4749 60.9137 45.7207 59.8074 44.2936C58.7011 42.8665 57.1522 41.8472 55.4038 41.3958" stroke="white" stroke-width="2.99376" stroke-linecap="round" stroke-linejoin="round"/>
<path d="M47.2539 16.9468C49.0069 17.3956 50.5607 18.4151 51.6703 19.8446C52.7799 21.2741 53.3821 23.0322 53.3821 24.8418C53.3821 26.6514 52.7799 28.4095 51.6703 29.839C50.5607 31.2684 49.0069 32.288 47.2539 32.7368" stroke="white" stroke-width="2.99376" stroke-linecap="round" stroke-linejoin="round"/>
</g>
</g>
</g>
<defs>
<filter id="filter0_d_3_12323" x="0.884044" y="0.590454" width="75.4428" height="75.4428" filterUnits="userSpaceOnUse" color-interpolation-filters="sRGB">
<feFlood flood-opacity="0" result="BackgroundImageFix"/>
<feColorMatrix in="SourceAlpha" type="matrix" values="0 0 0 0 0 0 0 0 0 0 0 0 0 0 0 0 0 0 127 0" result="hardAlpha"/>
<feOffset dy="2.79418"/>
<feGaussianBlur stdDeviation="1.39709"/>
<feComposite in2="hardAlpha" operator="out"/>
<feColorMatrix type="matrix" values="0 0 0 0 0 0 0 0 0 0 0 0 0 0 0 0 0 0 0.1 0"/>
<feBlend mode="normal" in2="BackgroundImageFix" result="effect1_dropShadow_3_12323"/>
<feBlend mode="normal" in="SourceGraphic" in2="effect1_dropShadow_3_12323" result="shape"/>
</filter>
<clipPath id="clip0_3_12323">
<rect width="48.8981" height="48.8981" fill="white" transform="translate(14.1562 11.0686)"/>
</clipPath>
<clipPath id="clip1_3_12323">
<rect width="48.8981" height="48.8981" fill="white" transform="translate(14.6553 10.5697)"/>
</clipPath>
</defs>
</svg>
